<?xml version="1.0" encoding="UTF-8" standalone="no"?>
<svg
   xmlns:dc="http://purl.org/dc/elements/1.1/"
   xmlns:cc="http://creativecommons.org/ns#"
   xmlns:rdf="http://www.w3.org/1999/02/22-rdf-syntax-ns#"
   xmlns:svg="http://www.w3.org/2000/svg"
   xmlns="http://www.w3.org/2000/svg"
   xmlns:sodipodi="http://sodipodi.sourceforge.net/DTD/sodipodi-0.dtd"
   xmlns:inkscape="http://www.inkscape.org/namespaces/inkscape"
   width="210mm"
   height="297mm"
   viewBox="0 0 210 297"
   version="1.1"
   id="svg8"
   inkscape:version="1.0.2 (e86c870879, 2021-01-15)"
   sodipodi:docname="phones1.svg"
   inkscape:export-filename="F:\AMLProductionsWebsite\amlproductions\assets\images\phones1.png"
   inkscape:export-xdpi="96"
   inkscape:export-ydpi="96">
  <defs
     id="defs2" />
  <sodipodi:namedview
     id="base"
     pagecolor="#ffffff"
     bordercolor="#666666"
     borderopacity="1.0"
     inkscape:pageopacity="0.0"
     inkscape:pageshadow="2"
     inkscape:zoom="0.39904088"
     inkscape:cx="89.685808"
     inkscape:cy="488.9319"
     inkscape:document-units="mm"
     inkscape:current-layer="layer1"
     inkscape:document-rotation="0"
     showgrid="false"
     inkscape:window-width="1346"
     inkscape:window-height="728"
     inkscape:window-x="4"
     inkscape:window-y="0"
     inkscape:window-maximized="0"
     inkscape:object-paths="false" />
  <metadata
     id="metadata5">
    <rdf:RDF>
      <cc:Work
         rdf:about="">
        <dc:format>image/svg+xml</dc:format>
        <dc:type
           rdf:resource="http://purl.org/dc/dcmitype/StillImage" />
        <dc:title />
      </cc:Work>
    </rdf:RDF>
  </metadata>
  <g
     inkscape:label="Layer 1"
     inkscape:groupmode="layer"
     id="layer1">
    <path
       id="path1081"
       style="opacity:0.297767;fill:#f2f2f2;fill-rule:evenodd;stroke:#000000;stroke-width:0;stroke-linecap:round;stroke-linejoin:round;stroke-miterlimit:4;stroke-dasharray:none"
       d="m 116.56797,88.659443 -72.239003,41.707007 0.197403,0.11421 48.576876,28.04583 2.84944,-1.64538 -0.1974,-0.1142 60.678984,-35.033 0.34675,0.2005 8.71058,-5.02915 -48.57688,-28.045829 z" />
    <path
       id="path886"
       style="opacity:1;fill:#b2b2b2;fill-opacity:1;fill-rule:evenodd;stroke:#e6e6e6;stroke-width:0.264999;stroke-linecap:round;stroke-linejoin:round"
       d="m 125.09898,138.01786 c -2.42948,-0.0128 -4.43143,0.36083 -5.82393,1.16479 l -71.420969,41.23521 -7.837765,-2.45774 -0.01757,9.18911 c 8e-6,5.2e-4 -8e-6,0.001 0,0.002 v 0.007 l 5.16e-4,5.1e-4 c 0.07368,4.20812 6.166019,10.63493 16.251721,16.45791 13.455772,7.76869 28.772596,11.43396 34.342607,8.21811 l 77.25834,-44.60555 c 1.24108,-0.71654 1.889,-1.71291 1.99988,-2.91403 l 0.002,-5.2e-4 v -0.0207 c 0.0203,-0.23416 0.0216,-0.4759 0.002,-0.72502 l 0.015,-8.29252 -3.65766,1.71721 c -2.79784,-3.07338 -7.10424,-6.42198 -12.5955,-9.59236 -10.09183,-5.82652 -21.23024,-9.34507 -28.51867,-9.38341 z" />
    <path
       id="rect835"
       style="opacity:1;fill:#e6e6e6;fill-rule:evenodd;stroke:#e6e6e6;stroke-width:0.264999;stroke-linecap:round;stroke-linejoin:round"
       d="m 153.61766,138.66977 c 13.45577,7.76869 19.80425,16.61185 14.23424,19.82769 l -77.258336,44.60512 c -5.57001,3.21585 -20.886805,-0.44945 -34.342578,-8.21814 -13.455776,-7.7687 -19.804244,-16.61185 -14.234234,-19.82769 l 77.258338,-44.60513 c 5.57001,-3.21584 20.88679,0.44945 34.34257,8.21815 z" />
    <path
       id="rect837"
       style="opacity:1;fill:#4d4d4d;fill-rule:evenodd;stroke:#e6e6e6;stroke-width:0.264999;stroke-linecap:round;stroke-linejoin:round"
       d="m 116.7654,131.90059 48.57681,28.04584 -72.238964,41.70719 -48.576814,-28.04584 z" />
    <path
       id="path841"
       style="opacity:1;fill:#b2b2b2;fill-opacity:1;fill-rule:evenodd;stroke:#e6e6e6;stroke-width:0.264999;stroke-linecap:round;stroke-linejoin:round"
       d="m 66.924763,192.95527 a 3.1841348,5.6282508 83.051057 0 1 -7.899514,0.32745 3.1841348,5.6282508 83.051057 0 1 0.567167,-4.56078 3.1841348,5.6282508 83.051057 0 1 7.899503,-0.32745 3.1841348,5.6282508 83.051057 0 1 -0.567156,4.56078 z" />
    <g
       id="g1041"
       transform="matrix(0.8660254,0.5,-1,0.57735027,11.121626,2.1343739)">
      <path
         id="path894"
         style="opacity:0.996;fill:#f2f2f2;fill-rule:evenodd;stroke:#e6e6e6;stroke-width:0.264999;stroke-linecap:round;stroke-linejoin:round"
         d="m 174.15449,45.178428 h 56.09167 V 117.4174 h -56.09168 z" />
      <path
         id="path896"
         style="opacity:1;fill:#3771c8;fill-rule:evenodd;stroke:#e6e6e6;stroke-width:0.264999;stroke-linecap:round;stroke-linejoin:round"
         d="m 174.55526,45.178425 h 56.09167 v 8.71036 h -56.09168 z" />
      <path
         id="path898"
         style="opacity:0.996;fill:#3771c8;fill-rule:evenodd;stroke:#e6e6e6;stroke-width:0.264999;stroke-linecap:round;stroke-linejoin:round"
         d="m 174.38259,114.56761 h 56.09167 v 2.84979 h -56.09168 z" />
      <rect
         style="opacity:0.996;fill:#d7e3f4;fill-opacity:1;fill-rule:evenodd;stroke:#e6e6e6;stroke-width:0.264999;stroke-linecap:round;stroke-linejoin:round"
         id="rect900"
         width="43.368259"
         height="4.6884556"
         x="180.97452"
         y="47.189377"
         ry="2.3442278" />
      <path
         id="rect902"
         style="opacity:0.996;fill:#5fbcd3;fill-opacity:1;fill-rule:evenodd;stroke:#e6e6e6;stroke-width:0.264999;stroke-linecap:round;stroke-linejoin:round"
         d="m 181.1009,58.679764 h 42.88526 c 1.2987,0 2.34422,1.045525 2.34422,2.344227 v 13.048084 c 0,1.298702 -1.04552,2.344227 -2.34422,2.344227 H 181.1009 c -1.2987,0 -2.34422,-1.045525 -2.34422,-2.344227 V 61.023991 c 0,-1.298702 1.04552,-2.344227 2.34422,-2.344227 z" />
      <g
         id="g911"
         transform="translate(0.28565763)">
        <path
           id="path905"
           style="opacity:0.996;fill:#b7c4c8;fill-opacity:1;fill-rule:evenodd;stroke:#e6e6e6;stroke-width:0.264998;stroke-linecap:round;stroke-linejoin:round"
           d="m 209.75499,80.063068 h 15.39087 c 0.46609,0 0.84131,0.103927 0.84131,0.233021 v 1.297008 c 0,0.129094 -0.37522,0.233021 -0.84131,0.233021 h -15.39087 c -0.46608,0 -0.8413,-0.103927 -0.8413,-0.233021 v -1.297008 c 0,-0.129094 0.37522,-0.233021 0.8413,-0.233021 z" />
        <path
           id="path907"
           style="opacity:0.996;fill:#b7c4c8;fill-opacity:1;fill-rule:evenodd;stroke:#e6e6e6;stroke-width:0.264998;stroke-linecap:round;stroke-linejoin:round"
           d="m 179.79768,80.063068 h 25.32293 c 0.76687,0 1.38422,0.103927 1.38422,0.233021 v 1.297008 c 0,0.129094 -0.61735,0.233021 -1.38422,0.233021 h -25.32293 c -0.76685,0 -1.38421,-0.103927 -1.38421,-0.233021 v -1.297008 c 0,-0.129094 0.61736,-0.233021 1.38421,-0.233021 z" />
      </g>
      <g
         id="g917"
         transform="translate(0.17056166,4.2196128)">
        <path
           id="path913"
           style="opacity:0.996;fill:#b7c4c8;fill-opacity:1;fill-rule:evenodd;stroke:#e6e6e6;stroke-width:0.264998;stroke-linecap:round;stroke-linejoin:round"
           d="m 209.75499,80.063068 h 15.39087 c 0.46609,0 0.84131,0.103927 0.84131,0.233021 v 1.297008 c 0,0.129094 -0.37522,0.233021 -0.84131,0.233021 h -15.39087 c -0.46608,0 -0.8413,-0.103927 -0.8413,-0.233021 v -1.297008 c 0,-0.129094 0.37522,-0.233021 0.8413,-0.233021 z" />
        <path
           id="path915"
           style="opacity:0.996;fill:#b7c4c8;fill-opacity:1;fill-rule:evenodd;stroke:#e6e6e6;stroke-width:0.264998;stroke-linecap:round;stroke-linejoin:round"
           d="m 179.79768,80.063068 h 25.32293 c 0.76687,0 1.38422,0.103927 1.38422,0.233021 v 1.297008 c 0,0.129094 -0.61735,0.233021 -1.38422,0.233021 h -25.32293 c -0.76685,0 -1.38421,-0.103927 -1.38421,-0.233021 v -1.297008 c 0,-0.129094 0.61736,-0.233021 1.38421,-0.233021 z" />
      </g>
      <g
         id="g923"
         transform="translate(0.11300704,8.5564371)">
        <path
           id="path919"
           style="opacity:0.996;fill:#b7c4c8;fill-opacity:1;fill-rule:evenodd;stroke:#e6e6e6;stroke-width:0.264998;stroke-linecap:round;stroke-linejoin:round"
           d="m 209.75499,80.063068 h 15.39087 c 0.46609,0 0.84131,0.103927 0.84131,0.233021 v 1.297008 c 0,0.129094 -0.37522,0.233021 -0.84131,0.233021 h -15.39087 c -0.46608,0 -0.8413,-0.103927 -0.8413,-0.233021 v -1.297008 c 0,-0.129094 0.37522,-0.233021 0.8413,-0.233021 z" />
        <path
           id="path921"
           style="opacity:0.996;fill:#b7c4c8;fill-opacity:1;fill-rule:evenodd;stroke:#e6e6e6;stroke-width:0.264998;stroke-linecap:round;stroke-linejoin:round"
           d="m 179.79768,80.063068 h 25.32293 c 0.76687,0 1.38422,0.103927 1.38422,0.233021 v 1.297008 c 0,0.129094 -0.61735,0.233021 -1.38422,0.233021 h -25.32293 c -0.76685,0 -1.38421,-0.103927 -1.38421,-0.233021 v -1.297008 c 0,-0.129094 0.61736,-0.233021 1.38421,-0.233021 z" />
      </g>
      <g
         id="g929"
         transform="translate(0.05545241,13.127684)">
        <path
           id="path925"
           style="opacity:0.996;fill:#b7c4c8;fill-opacity:1;fill-rule:evenodd;stroke:#e6e6e6;stroke-width:0.264998;stroke-linecap:round;stroke-linejoin:round"
           d="m 209.75499,80.063068 h 15.39087 c 0.46609,0 0.84131,0.103927 0.84131,0.233021 v 1.297008 c 0,0.129094 -0.37522,0.233021 -0.84131,0.233021 h -15.39087 c -0.46608,0 -0.8413,-0.103927 -0.8413,-0.233021 v -1.297008 c 0,-0.129094 0.37522,-0.233021 0.8413,-0.233021 z" />
        <path
           id="path927"
           style="opacity:0.996;fill:#b7c4c8;fill-opacity:1;fill-rule:evenodd;stroke:#e6e6e6;stroke-width:0.264998;stroke-linecap:round;stroke-linejoin:round"
           d="m 179.79768,80.063068 h 25.32293 c 0.76687,0 1.38422,0.103927 1.38422,0.233021 v 1.297008 c 0,0.129094 -0.61735,0.233021 -1.38422,0.233021 h -25.32293 c -0.76685,0 -1.38421,-0.103927 -1.38421,-0.233021 v -1.297008 c 0,-0.129094 0.61736,-0.233021 1.38421,-0.233021 z" />
      </g>
      <g
         id="g935"
         transform="translate(-0.00210222,17.816143)">
        <path
           id="path931"
           style="opacity:0.996;fill:#b7c4c8;fill-opacity:1;fill-rule:evenodd;stroke:#e6e6e6;stroke-width:0.264998;stroke-linecap:round;stroke-linejoin:round"
           d="m 209.75499,80.063068 h 15.39087 c 0.46609,0 0.84131,0.103927 0.84131,0.233021 v 1.297008 c 0,0.129094 -0.37522,0.233021 -0.84131,0.233021 h -15.39087 c -0.46608,0 -0.8413,-0.103927 -0.8413,-0.233021 v -1.297008 c 0,-0.129094 0.37522,-0.233021 0.8413,-0.233021 z" />
        <path
           id="path933"
           style="opacity:0.996;fill:#b7c4c8;fill-opacity:1;fill-rule:evenodd;stroke:#e6e6e6;stroke-width:0.264998;stroke-linecap:round;stroke-linejoin:round"
           d="m 179.79768,80.063068 h 25.32293 c 0.76687,0 1.38422,0.103927 1.38422,0.233021 v 1.297008 c 0,0.129094 -0.61735,0.233021 -1.38422,0.233021 h -25.32293 c -0.76685,0 -1.38421,-0.103927 -1.38421,-0.233021 v -1.297008 c 0,-0.129094 0.61736,-0.233021 1.38421,-0.233021 z" />
      </g>
      <g
         id="g941"
         transform="translate(-0.05965684,22.38739)">
        <path
           id="path937"
           style="opacity:0.996;fill:#b7c4c8;fill-opacity:1;fill-rule:evenodd;stroke:#e6e6e6;stroke-width:0.264998;stroke-linecap:round;stroke-linejoin:round"
           d="m 209.75499,80.063068 h 15.39087 c 0.46609,0 0.84131,0.103927 0.84131,0.233021 v 1.297008 c 0,0.129094 -0.37522,0.233021 -0.84131,0.233021 h -15.39087 c -0.46608,0 -0.8413,-0.103927 -0.8413,-0.233021 v -1.297008 c 0,-0.129094 0.37522,-0.233021 0.8413,-0.233021 z" />
        <path
           id="path939"
           style="opacity:0.996;fill:#b7c4c8;fill-opacity:1;fill-rule:evenodd;stroke:#e6e6e6;stroke-width:0.264998;stroke-linecap:round;stroke-linejoin:round"
           d="m 179.79768,80.063068 h 25.32293 c 0.76687,0 1.38422,0.103927 1.38422,0.233021 v 1.297008 c 0,0.129094 -0.61735,0.233021 -1.38422,0.233021 h -25.32293 c -0.76685,0 -1.38421,-0.103927 -1.38421,-0.233021 v -1.297008 c 0,-0.129094 0.61736,-0.233021 1.38421,-0.233021 z" />
      </g>
      <g
         id="g947"
         transform="translate(-0.11721147,26.958637)">
        <path
           id="path943"
           style="opacity:0.996;fill:#b7c4c8;fill-opacity:1;fill-rule:evenodd;stroke:#e6e6e6;stroke-width:0.264998;stroke-linecap:round;stroke-linejoin:round"
           d="m 209.75499,80.063068 h 15.39087 c 0.46609,0 0.84131,0.103927 0.84131,0.233021 v 1.297008 c 0,0.129094 -0.37522,0.233021 -0.84131,0.233021 h -15.39087 c -0.46608,0 -0.8413,-0.103927 -0.8413,-0.233021 v -1.297008 c 0,-0.129094 0.37522,-0.233021 0.8413,-0.233021 z" />
        <path
           id="path945"
           style="opacity:0.996;fill:#b7c4c8;fill-opacity:1;fill-rule:evenodd;stroke:#e6e6e6;stroke-width:0.264998;stroke-linecap:round;stroke-linejoin:round"
           d="m 179.79768,80.063068 h 25.32293 c 0.76687,0 1.38422,0.103927 1.38422,0.233021 v 1.297008 c 0,0.129094 -0.61735,0.233021 -1.38422,0.233021 h -25.32293 c -0.76685,0 -1.38421,-0.103927 -1.38421,-0.233021 v -1.297008 c 0,-0.129094 0.61736,-0.233021 1.38421,-0.233021 z" />
      </g>
      <text
         xml:space="preserve"
         style="font-style:normal;font-variant:normal;font-weight:bold;font-stretch:normal;font-size:10.5833px;line-height:1.25;font-family:Consolas;-inkscape-font-specification:'Consolas, Bold';font-variant-ligatures:normal;font-variant-caps:normal;font-variant-numeric:normal;font-variant-east-asian:normal;fill:#d7eef4;fill-opacity:1;stroke:none;stroke-width:0.264583"
         x="190.93704"
         y="70.561295"
         id="text955"><tspan
           sodipodi:role="line"
           id="tspan953"
           x="190.93704"
           y="70.561295"
           style="font-style:normal;font-variant:normal;font-weight:bold;font-stretch:normal;font-size:10.5833px;font-family:Consolas;-inkscape-font-specification:'Consolas, Bold';font-variant-ligatures:normal;font-variant-caps:normal;font-variant-numeric:normal;font-variant-east-asian:normal;fill:#d7eef4;stroke-width:0.264583">NEWS</tspan></text>
    </g>
    <g
       id="g1079"
       transform="matrix(0.8660254,0.5,-1,0.57735027,-143.04088,-23.524807)">
      <path
         id="path957"
         style="opacity:0.996;fill:#f2f2f2;fill-rule:evenodd;stroke:#e6e6e6;stroke-width:0.264999;stroke-linecap:round;stroke-linejoin:round"
         d="m 262.29751,-32.649986 h 56.09167 V 39.588986 H 262.2975 Z" />
      <path
         id="path959"
         style="opacity:1;fill:#c83737;fill-rule:evenodd;stroke:#e6e6e6;stroke-width:0.264999;stroke-linecap:round;stroke-linejoin:round"
         d="m 262.69828,-32.649989 h 56.09167 v 8.71036 h -56.09168 z" />
      <path
         id="path961"
         style="opacity:0.996;fill:#c83737;fill-rule:evenodd;stroke:#e6e6e6;stroke-width:0.264999;stroke-linecap:round;stroke-linejoin:round"
         d="m 262.52561,36.739196 h 56.09167 v 2.84979 H 262.5256 Z" />
      <rect
         style="opacity:0.996;fill:#ffd5d5;fill-opacity:1;fill-rule:evenodd;stroke:#e6e6e6;stroke-width:0.264999;stroke-linecap:round;stroke-linejoin:round"
         id="rect963"
         width="43.368259"
         height="4.6884556"
         x="269.11755"
         y="-30.639038"
         ry="2.3442278" />
      <path
         id="path965"
         style="opacity:0.993;fill:#808080;fill-opacity:1;fill-rule:evenodd;stroke:#e6e6e6;stroke-width:0.265;stroke-linecap:round;stroke-linejoin:round"
         d="m 269.24392,-19.148651 h 42.88526 c 1.2987,0 2.34422,2.220111 2.34422,4.977828 V 13.53601 c 0,2.757717 -1.04552,4.977827 -2.34422,4.977827 h -42.88526 c -1.2987,0 -2.34422,-2.22011 -2.34422,-4.977827 v -27.706833 c 0,-2.757717 1.04552,-4.977828 2.34422,-4.977828 z" />
      <path
         id="path997"
         style="opacity:0.996;fill:#b7c4c8;fill-opacity:1;fill-rule:evenodd;stroke:#e6e6e6;stroke-width:0.264998;stroke-linecap:round;stroke-linejoin:round"
         d="m 297.83836,29.89656 h 15.39087 c 0.46609,0 0.84131,0.103927 0.84131,0.233021 v 1.297008 c 0,0.129094 -0.37522,0.233021 -0.84131,0.233021 h -15.39087 c -0.46608,0 -0.8413,-0.103927 -0.8413,-0.233021 v -1.297008 c 0,-0.129094 0.37522,-0.233021 0.8413,-0.233021 z" />
      <path
         id="path999"
         style="opacity:0.996;fill:#b7c4c8;fill-opacity:1;fill-rule:evenodd;stroke:#e6e6e6;stroke-width:0.264998;stroke-linecap:round;stroke-linejoin:round"
         d="m 267.88105,29.89656 h 25.32293 c 0.76687,0 1.38422,0.103927 1.38422,0.233021 v 1.297008 c 0,0.129094 -0.61735,0.233021 -1.38422,0.233021 h -25.32293 c -0.76685,0 -1.38421,-0.103927 -1.38421,-0.233021 v -1.297008 c 0,-0.129094 0.61736,-0.233021 1.38421,-0.233021 z" />
      <g
         id="g1007"
         transform="translate(88.025812,-47.001799)">
        <path
           id="path1003"
           style="opacity:0.996;fill:#b7c4c8;fill-opacity:1;fill-rule:evenodd;stroke:#e6e6e6;stroke-width:0.264998;stroke-linecap:round;stroke-linejoin:round"
           d="m 209.75499,80.063068 h 15.39087 c 0.46609,0 0.84131,0.103927 0.84131,0.233021 v 1.297008 c 0,0.129094 -0.37522,0.233021 -0.84131,0.233021 h -15.39087 c -0.46608,0 -0.8413,-0.103927 -0.8413,-0.233021 v -1.297008 c 0,-0.129094 0.37522,-0.233021 0.8413,-0.233021 z" />
        <path
           id="path1005"
           style="opacity:0.996;fill:#b7c4c8;fill-opacity:1;fill-rule:evenodd;stroke:#e6e6e6;stroke-width:0.264998;stroke-linecap:round;stroke-linejoin:round"
           d="m 179.79768,80.063068 h 25.32293 c 0.76687,0 1.38422,0.103927 1.38422,0.233021 v 1.297008 c 0,0.129094 -0.61735,0.233021 -1.38422,0.233021 h -25.32293 c -0.76685,0 -1.38421,-0.103927 -1.38421,-0.233021 v -1.297008 c 0,-0.129094 0.61736,-0.233021 1.38421,-0.233021 z" />
      </g>
      <path
         id="path1043"
         style="opacity:0.996;fill:#1a1a1a;fill-opacity:1;fill-rule:evenodd;stroke:none;stroke-width:0.265;stroke-linecap:round;stroke-linejoin:round"
         d="m 269.24392,13.201714 h 42.88526 c 1.2987,0 2.34422,0.313136 2.34422,0.7021 v 3.907923 c 0,0.388963 -1.04552,0.7021 -2.34422,0.7021 h -42.88526 c -1.2987,0 -2.34422,-0.313137 -2.34422,-0.7021 v -3.907923 c 0,-0.388964 1.04552,-0.7021 2.34422,-0.7021 z" />
      <rect
         style="opacity:0.996;fill:#ffffff;fill-opacity:1;fill-rule:evenodd;stroke:#e6e6e6;stroke-width:0.264999;stroke-linecap:round;stroke-linejoin:round"
         id="rect1045"
         width="40.906799"
         height="0.35163435"
         x="270.23315"
         y="15.681958" />
      <ellipse
         style="opacity:0.996;fill:#ffffff;fill-opacity:1;fill-rule:evenodd;stroke:#e6e6e6;stroke-width:0.264999;stroke-linecap:round;stroke-linejoin:round"
         id="path1050"
         cx="276.38464"
         cy="15.857776"
         rx="1.2893261"
         ry="1.2307204" />
      <circle
         style="opacity:0.991;fill:#1a1a1a;fill-opacity:1;fill-rule:evenodd;stroke:none;stroke-width:0.264999;stroke-linecap:round;stroke-linejoin:round"
         id="path1052"
         cx="290.68655"
         cy="-2.8130753"
         r="13.244896" />
      <path
         sodipodi:type="star"
         style="opacity:0.991;fill:#808080;fill-opacity:1;fill-rule:evenodd;stroke:none;stroke-width:0.264999;stroke-linecap:round;stroke-linejoin:round"
         id="path1054"
         sodipodi:sides="3"
         sodipodi:cx="290.03046"
         sodipodi:cy="-2.8130753"
         sodipodi:r1="5.4373994"
         sodipodi:r2="2.7186997"
         sodipodi:arg1="0"
         sodipodi:arg2="1.0471976"
         inkscape:flatsided="false"
         inkscape:rounded="0"
         inkscape:randomized="0"
         d="m 295.46786,-2.8130753 -4.07805,2.35446306 -4.07805,2.35446294 v -4.7089261 -4.7089259 l 4.07805,2.3544631 z"
         inkscape:transform-center-x="-1.3593467" />
      <rect
         style="opacity:0.991;fill:#c83737;fill-opacity:1;fill-rule:evenodd;stroke:none;stroke-width:0.264999;stroke-linecap:round;stroke-linejoin:round"
         id="rect1056"
         width="6.446631"
         height="6.2122073"
         x="266.76721"
         y="20.277584" />
      <path
         id="path1060"
         style="opacity:0.996;fill:#c83737;fill-opacity:1;fill-rule:evenodd;stroke:#e6e6e6;stroke-width:0.264998;stroke-linecap:round;stroke-linejoin:round"
         d="m 276.38867,22.160604 h 15.39087 c 0.46609,0 0.84131,0.138473 0.84131,0.310479 v 1.728148 c 0,0.172007 -0.37522,0.31048 -0.84131,0.31048 h -15.39087 c -0.46608,0 -0.8413,-0.138473 -0.8413,-0.31048 v -1.728148 c 0,-0.172006 0.37522,-0.310479 0.8413,-0.310479 z" />
    </g>
  </g>
</svg>
